<svg width="38" height="38" viewBox="0 0 38 38" fill="none" xmlns="http://www.w3.org/2000/svg">
<path d="M0 19C0 8.50659 8.50659 0 19 0C29.4934 0 38 8.50659 38 19C38 29.4934 29.4934 38 19 38C8.50659 38 0 29.4934 0 19Z" fill="#FCFCFC" fill-opacity="0.3"/>
<path fill-rule="evenodd" clip-rule="evenodd" d="M18.1353 13.8648C17.8756 13.6051 17.4545 13.6051 17.1948 13.8648C16.9351 14.1245 16.9351 14.5455 17.1948 14.8052L21.3961 19.0065L17.1948 23.2078C16.9351 23.4675 16.9351 23.8886 17.1948 24.1483C17.4545 24.408 17.8755 24.408 18.1352 24.1483L22.8039 19.4795C22.8049 19.4786 22.8058 19.4777 22.8068 19.4767C23.0665 19.217 23.0665 18.796 22.8068 18.5363L18.1353 13.8648Z" fill="#FCFCFC"/>
<path d="M19 36C9.61116 36 2 28.3888 2 19H-2C-2 30.598 7.40202 40 19 40V36ZM36 19C36 28.3888 28.3888 36 19 36V40C30.598 40 40 30.598 40 19H36ZM19 2C28.3888 2 36 9.61116 36 19H40C40 7.40202 30.598 -2 19 -2V2ZM19 -2C7.40202 -2 -2 7.40202 -2 19H2C2 9.61116 9.61116 2 19 2V-2Z" fill="#FCFCFC"/>
</svg>
