<svg width="38" height="38" viewBox="0 0 38 38" fill="none" xmlns="http://www.w3.org/2000/svg"><path d="M0 19a19 19 0 1 1 38 0 19 19 0 0 1-38 0Z" fill="#FCFCFC" fill-opacity=".3"/><path fill-rule="evenodd" clip-rule="evenodd" d="M18.14 13.86a.67.67 0 0 0-.95.95l4.2 4.2-4.2 4.2a.67.67 0 0 0 .95.94l4.66-4.67a.67.67 0 0 0 0-.94l-4.66-4.68Z" fill="#FCFCFC"/><path d="M19 36A17 17 0 0 1 2 19h-4a21 21 0 0 0 21 21v-4Zm17-17a17 17 0 0 1-17 17v4a21 21 0 0 0 21-21h-4ZM19 2a17 17 0 0 1 17 17h4A21 21 0 0 0 19-2v4Zm0-4A21 21 0 0 0-2 19h4A17 17 0 0 1 19 2v-4Z" fill="#FCFCFC"/></svg>